<mxfile host="app.diagrams.net" modified="2024-01-15T07:33:16.563Z" agent="Mozilla/5.0 (Windows NT 10.0; Win64; x64) AppleWebKit/537.36 (KHTML, like Gecko) Chrome/120.0.0.0 Safari/537.36" etag="M5fUJj1N39hWQH0KKq44" version="22.1.18" type="github">
  <diagram name="第 1 页" id="1LsxUvCvUVse-26j2RP5">
    <mxGraphModel dx="1221" dy="725" grid="1" gridSize="10" guides="1" tooltips="1" connect="1" arrows="1" fold="1" page="1" pageScale="1" pageWidth="827" pageHeight="1169" math="0" shadow="0">
      <root>
        <mxCell id="0" />
        <mxCell id="1" parent="0" />
        <mxCell id="lA9OiEHUUAmovSKi4Y1c-3" value="cinrad" style="edgeStyle=orthogonalEdgeStyle;rounded=0;orthogonalLoop=1;jettySize=auto;html=1;exitX=1;exitY=0.5;exitDx=0;exitDy=0;" edge="1" parent="1" source="lA9OiEHUUAmovSKi4Y1c-1" target="lA9OiEHUUAmovSKi4Y1c-2">
          <mxGeometry relative="1" as="geometry" />
        </mxCell>
        <mxCell id="lA9OiEHUUAmovSKi4Y1c-1" value="原始雷达数据&lt;br&gt;（.bin）" style="rounded=1;whiteSpace=wrap;html=1;" vertex="1" parent="1">
          <mxGeometry x="4" y="30" width="120" height="60" as="geometry" />
        </mxCell>
        <mxCell id="lA9OiEHUUAmovSKi4Y1c-5" style="edgeStyle=orthogonalEdgeStyle;rounded=0;orthogonalLoop=1;jettySize=auto;html=1;exitX=1;exitY=0.5;exitDx=0;exitDy=0;" edge="1" parent="1" source="lA9OiEHUUAmovSKi4Y1c-2" target="lA9OiEHUUAmovSKi4Y1c-4">
          <mxGeometry relative="1" as="geometry" />
        </mxCell>
        <mxCell id="lA9OiEHUUAmovSKi4Y1c-2" value="表格数据&lt;br&gt;（.xlsx）" style="rounded=0;whiteSpace=wrap;html=1;" vertex="1" parent="1">
          <mxGeometry x="210" y="30" width="120" height="60" as="geometry" />
        </mxCell>
        <mxCell id="lA9OiEHUUAmovSKi4Y1c-7" style="edgeStyle=orthogonalEdgeStyle;rounded=0;orthogonalLoop=1;jettySize=auto;html=1;exitX=1;exitY=0.5;exitDx=0;exitDy=0;" edge="1" parent="1" source="lA9OiEHUUAmovSKi4Y1c-4" target="lA9OiEHUUAmovSKi4Y1c-6">
          <mxGeometry relative="1" as="geometry" />
        </mxCell>
        <mxCell id="lA9OiEHUUAmovSKi4Y1c-4" value="GeoJSON数据" style="rounded=0;whiteSpace=wrap;html=1;" vertex="1" parent="1">
          <mxGeometry x="413.5" y="30" width="120" height="60" as="geometry" />
        </mxCell>
        <mxCell id="lA9OiEHUUAmovSKi4Y1c-9" style="edgeStyle=orthogonalEdgeStyle;rounded=0;orthogonalLoop=1;jettySize=auto;html=1;exitX=0.5;exitY=1;exitDx=0;exitDy=0;entryX=0.5;entryY=0;entryDx=0;entryDy=0;" edge="1" parent="1" source="lA9OiEHUUAmovSKi4Y1c-6" target="lA9OiEHUUAmovSKi4Y1c-8">
          <mxGeometry relative="1" as="geometry" />
        </mxCell>
        <mxCell id="lA9OiEHUUAmovSKi4Y1c-6" value="压缩后的&lt;br&gt;GeoJSON数据" style="rounded=0;whiteSpace=wrap;html=1;" vertex="1" parent="1">
          <mxGeometry x="620" y="30" width="120" height="60" as="geometry" />
        </mxCell>
        <mxCell id="lA9OiEHUUAmovSKi4Y1c-11" style="edgeStyle=orthogonalEdgeStyle;rounded=0;orthogonalLoop=1;jettySize=auto;html=1;exitX=0;exitY=0.5;exitDx=0;exitDy=0;entryX=1;entryY=0.5;entryDx=0;entryDy=0;" edge="1" parent="1" source="lA9OiEHUUAmovSKi4Y1c-8" target="lA9OiEHUUAmovSKi4Y1c-10">
          <mxGeometry relative="1" as="geometry" />
        </mxCell>
        <mxCell id="lA9OiEHUUAmovSKi4Y1c-12" value="最大最小值&lt;br&gt;标准化拉伸" style="edgeLabel;html=1;align=center;verticalAlign=middle;resizable=0;points=[];" vertex="1" connectable="0" parent="lA9OiEHUUAmovSKi4Y1c-11">
          <mxGeometry x="0.031" y="-1" relative="1" as="geometry">
            <mxPoint as="offset" />
          </mxGeometry>
        </mxCell>
        <mxCell id="lA9OiEHUUAmovSKi4Y1c-8" value="雷达三角网数据" style="rounded=0;whiteSpace=wrap;html=1;" vertex="1" parent="1">
          <mxGeometry x="620" y="130" width="120" height="60" as="geometry" />
        </mxCell>
        <mxCell id="lA9OiEHUUAmovSKi4Y1c-14" style="edgeStyle=orthogonalEdgeStyle;rounded=0;orthogonalLoop=1;jettySize=auto;html=1;exitX=0;exitY=0.5;exitDx=0;exitDy=0;" edge="1" parent="1" source="lA9OiEHUUAmovSKi4Y1c-10" target="lA9OiEHUUAmovSKi4Y1c-13">
          <mxGeometry relative="1" as="geometry" />
        </mxCell>
        <mxCell id="lA9OiEHUUAmovSKi4Y1c-10" value="拉伸后的&lt;br&gt;雷达三角网数据" style="rounded=0;whiteSpace=wrap;html=1;" vertex="1" parent="1">
          <mxGeometry x="414" y="130" width="120" height="60" as="geometry" />
        </mxCell>
        <mxCell id="lA9OiEHUUAmovSKi4Y1c-17" style="edgeStyle=orthogonalEdgeStyle;rounded=0;orthogonalLoop=1;jettySize=auto;html=1;exitX=0;exitY=0.5;exitDx=0;exitDy=0;entryX=1;entryY=0.5;entryDx=0;entryDy=0;" edge="1" parent="1" source="lA9OiEHUUAmovSKi4Y1c-13" target="lA9OiEHUUAmovSKi4Y1c-16">
          <mxGeometry relative="1" as="geometry" />
        </mxCell>
        <mxCell id="lA9OiEHUUAmovSKi4Y1c-13" value="放在系统文件路径下" style="rounded=0;whiteSpace=wrap;html=1;" vertex="1" parent="1">
          <mxGeometry x="210" y="130" width="120" height="60" as="geometry" />
        </mxCell>
        <mxCell id="lA9OiEHUUAmovSKi4Y1c-16" value="雷达体扫描数据&lt;br&gt;三维可视化" style="rounded=1;whiteSpace=wrap;html=1;" vertex="1" parent="1">
          <mxGeometry x="4" y="130" width="120" height="60" as="geometry" />
        </mxCell>
      </root>
    </mxGraphModel>
  </diagram>
</mxfile>
